<svg xmlns="http://www.w3.org/2000/svg" id="Layer_1" data-name="Layer 1" viewBox="0 0 923 170.26"><defs><style>      .cls-1 {        fill: #007fa2;      }    </style></defs><g><g><path class="cls-1" d="m923,75.88h-75.88V0h75.88v75.88Zm-66.4-9.49h56.91V9.49h-56.91v56.91Z"></path><path class="cls-1" d="m828.62,75.88h-75.88V0h75.88v75.88Zm-66.4-9.49h56.91V9.49h-56.91v56.91Z"></path><path class="cls-1" d="m922.53,170.26h-75.88v-75.88h75.88v75.88Zm-66.4-9.49h56.91v-56.91h-56.91v56.91Z"></path><path class="cls-1" d="m828.15,170.26h-75.88v-75.88h75.88v75.88Zm-66.4-9.49h56.91v-56.91h-56.91v56.91Z"></path></g><path class="cls-1" d="m837.63,143.46c-32.17,0-58.33-26.17-58.33-58.33s26.17-58.33,58.33-58.33,58.33,26.17,58.33,58.33-26.17,58.33-58.33,58.33Zm0-111.92c-29.55,0-53.59,24.04-53.59,53.59s24.04,53.59,53.59,53.59,53.59-24.04,53.59-53.59-24.04-53.59-53.59-53.59Z"></path></g><g><path class="cls-1" d="m0,102.43c0-18.2,13.48-31.11,32.26-31.11,10.94,0,20.05,4.49,24.88,13.02l-8.41,5.41c-3.92-5.99-9.91-8.76-16.59-8.76-11.98,0-20.97,8.41-20.97,21.43s8.99,21.54,20.97,21.54c6.68,0,12.67-2.76,16.59-8.76l8.41,5.3c-4.84,8.53-13.94,13.13-24.88,13.13-18.78,0-32.26-13.02-32.26-31.22Z"></path><path class="cls-1" d="m69.73,32.38h11.06s0,100.58,0,100.58h-11.06V32.38Z"></path><path class="cls-1" d="m154.04,71.9v61.06h-10.48v-9.22c-4.49,6.34-12.1,9.91-20.74,9.91-15.78,0-26.27-8.64-26.27-26.61v-35.14h11.06v33.87c0,11.98,5.99,17.97,16.47,17.97,11.52,0,18.89-7.14,18.89-20.28v-31.57h11.06Z"></path><path class="cls-1" d="m167.4,126.51l4.61-8.76c5.18,3.69,13.48,6.34,21.43,6.34,10.25,0,14.52-3.11,14.52-8.29,0-13.71-38.59-1.84-38.59-26.15,0-10.94,9.79-18.32,25.46-18.32,7.95,0,16.94,2.07,22.24,5.53l-4.72,8.76c-5.53-3.57-11.64-4.84-17.63-4.84-9.68,0-14.4,3.57-14.4,8.41,0,14.4,38.71,2.65,38.71,26.38,0,11.06-10.14,18.09-26.38,18.09-10.14,0-20.16-3.11-25.23-7.14Z"></path><path class="cls-1" d="m267.17,129.39c-3.34,2.88-8.41,4.26-13.36,4.26-12.33,0-19.35-6.8-19.35-19.12v-33.53h-10.37v-9.1h10.37v-13.36h11.06v13.36h17.51v9.1h-17.51v33.06c0,6.57,3.46,10.25,9.56,10.25,3.23,0,6.34-1.04,8.64-2.88l3.46,7.95Z"></path><path class="cls-1" d="m333.42,106.12h-49.54c1.38,10.71,10.02,17.86,22.12,17.86,7.14,0,13.13-2.42,17.63-7.37l6.11,7.14c-5.53,6.45-13.94,9.91-24.08,9.91-19.7,0-32.83-13.02-32.83-31.22s13.02-31.11,30.65-31.11,30.18,12.67,30.18,31.45c0,.92-.12,2.3-.23,3.34Zm-49.54-7.95h39.17c-1.15-10.25-8.87-17.51-19.59-17.51s-18.43,7.14-19.59,17.51Z"></path><path class="cls-1" d="m380.91,71.32v10.71c-.92-.12-1.73-.12-2.53-.12-11.87,0-19.24,7.26-19.24,20.62v30.41h-11.06v-61.06h10.6v10.25c3.92-7.14,11.52-10.83,22.24-10.83Z"></path><path class="cls-1" d="m451.08,71.9l-26.73,61.06h-11.29l-26.73-61.06h11.52l20.97,48.96,21.43-48.96h10.83Z"></path><path class="cls-1" d="m462.63,71.9h11.06v61.06h-11.06v-61.06Z"></path><path class="cls-1" d="m487.05,126.51l4.61-8.76c5.18,3.69,13.48,6.34,21.43,6.34,10.25,0,14.52-3.11,14.52-8.29,0-13.71-38.59-1.84-38.59-26.15,0-10.94,9.79-18.32,25.46-18.32,7.95,0,16.94,2.07,22.24,5.53l-4.72,8.76c-5.53-3.57-11.64-4.84-17.63-4.84-9.68,0-14.4,3.57-14.4,8.41,0,14.4,38.71,2.65,38.71,26.38,0,11.06-10.14,18.09-26.38,18.09-10.14,0-20.16-3.11-25.23-7.14Z"></path><path class="cls-1" d="m552.49,71.9h11.06v61.06h-11.06v-61.06Z"></path><path class="cls-1" d="m578.99,102.43c0-18.2,13.48-31.11,31.8-31.11s31.68,12.9,31.68,31.11-13.36,31.22-31.68,31.22-31.8-13.02-31.8-31.22Zm52.3,0c0-13.02-8.76-21.43-20.51-21.43s-20.62,8.41-20.62,21.43,8.87,21.54,20.62,21.54,20.51-8.53,20.51-21.54Z"></path><path class="cls-1" d="m715.74,97.82v35.14h-11.06v-33.87c0-11.98-5.99-17.86-16.47-17.86-11.75,0-19.35,7.03-19.35,20.28v31.45h-11.06v-61.06h10.6v9.22c4.49-6.22,12.33-9.79,22-9.79,14.86,0,25.35,8.53,25.35,26.5Z"></path></g><path class="cls-1" d="m468.42,58.29c-4.37,0-7.92-3.55-7.92-7.92s3.55-7.92,7.92-7.92,7.92,3.55,7.92,7.92-3.55,7.92-7.92,7.92Zm0-12.8c-2.69,0-4.88,2.19-4.88,4.88s2.19,4.88,4.88,4.88,4.88-2.19,4.88-4.88-2.19-4.88-4.88-4.88Z"></path><path class="cls-1" d="m566.43,59.22h-15.84v-15.84h15.84v15.84Zm-12.82-3.02h9.79v-9.8h-9.79v9.8Z"></path></svg>