<svg xmlns="http://www.w3.org/2000/svg" id="Layer_1" data-name="Layer 1" viewBox="0 0 418.88 418.53"><defs><style>      .cls-1 {        fill: #1d8296;      }    </style></defs><path class="cls-1" d="m186.82,185.77H0V0h186.82v185.77Zm-163.47-23.22h140.12V23.22H23.35v139.33Z"></path><path class="cls-1" d="m186.82,418.53H0v-185.77h186.82v185.77Zm-163.47-23.22h140.12v-139.33H23.35v139.33Z"></path><path class="cls-1" d="m418.88,185.77h-185.06V0h185.06v185.77Zm-161.92-23.22h138.79V23.22h-138.79v139.33Z"></path><path class="cls-1" d="m418.88,418.53h-185.06v-185.77h185.06v185.77Zm-161.92-23.22h138.79v-139.33h-138.79v139.33Z"></path><path class="cls-1" d="m211.62,353.12c-19.37,0-38.16-3.79-55.85-11.28-17.09-7.23-32.43-17.57-45.6-30.74-13.17-13.17-23.52-28.52-30.74-45.6-7.48-17.69-11.28-36.48-11.28-55.85s3.79-38.16,11.28-55.85c7.23-17.09,17.57-32.43,30.74-45.6,13.17-13.17,28.52-23.52,45.6-30.74,17.69-7.48,36.48-11.28,55.85-11.28s38.16,3.79,55.85,11.28c17.09,7.23,32.43,17.57,45.6,30.74,13.17,13.17,23.52,28.52,30.74,45.6,7.48,17.69,11.28,36.48,11.28,55.85s-3.79,38.16-11.28,55.85c-7.23,17.09-17.57,32.43-30.74,45.6-13.17,13.17-28.52,23.52-45.6,30.74-17.69,7.48-36.48,11.28-55.85,11.28Zm0-274.77c-72.4,0-131.3,58.9-131.3,131.3s58.9,131.3,131.3,131.3,131.3-58.9,131.3-131.3-58.9-131.3-131.3-131.3Z"></path></svg>